<?xml version="1.0" encoding="UTF-8" standalone="no"?>
<svg
   xmlns:svg="http://www.w3.org/2000/svg"
   xmlns="http://www.w3.org/2000/svg"
   version="1.0"
   width="403"
   height="482"
   viewBox="-0.325 -0.101 403 482"
   id="svg2"
   xml:space="preserve">
	<defs
   id="defs4">
	</defs>
	<g
   transform="matrix(0.9751205,0,0,0.979206,6,6)"
   id="g6">
		<g
   id="g8">
			<polygon
   points="401.938,351.227 401.938,0 2.14,0 2.14,351.227 401.938,351.227 "
   style="fill:#009901;fill-rule:evenodd"
   id="polygon10" />
		</g>
		<g
   id="g12">
			<polygon
   points="401.938,480.907 401.938,472.85 2.14,472.85 2.14,480.907 401.938,480.907 "
   style="fill:#009901;fill-rule:evenodd"
   id="polygon14" />
		</g>
		<g
   id="g16">
			<g
   id="g18">
				<path
   d="M 21.958,388.797 L 12.253,388.797 L 17.207,375.186 L 21.958,388.797 L 21.958,388.797 z M 24.05,394.75 L 26.962,402.736 L 34.059,402.736 L 19.761,364.134 L 14.757,364.134 L 0,402.737 L 7.044,402.737 L 10.11,394.751 L 24.05,394.751 L 24.05,394.75 z "
   style="fill:#009901;fill-rule:evenodd"
   id="path20" />
			</g>
		</g>
		<g
   id="g22">
			<path
   d="M 78.527,382.487 L 78.527,383.682 C 78.527,395.875 72.093,403.569 61.933,403.569 C 51.619,403.569 44.063,395.366 44.063,384.022 C 44.063,372.45 51.668,364.077 62.136,364.077 C 68.467,364.077 73.522,367.13 76.739,372.96 L 70.918,376.423 C 68.876,372.679 65.914,370.804 61.982,370.804 C 55.651,370.804 50.903,376.476 50.903,384.023 C 50.903,391.406 55.651,396.896 62.034,396.896 C 66.883,396.896 70.457,393.726 70.968,388.91 L 62.954,388.91 L 62.954,382.488 L 78.527,382.488 L 78.527,382.487 z "
   style="fill:#009901;fill-rule:evenodd"
   id="path24" />
		</g>
		<g
   id="g26">
			<g
   id="g28">
				<path
   d="M 100.239,382.311 L 100.239,370.868 L 102.29,370.868 C 106.444,370.868 108.7,372.79 108.7,376.475 C 108.7,380.266 106.444,382.311 102.187,382.311 L 100.239,382.311 L 100.239,382.311 z M 107.777,386.799 C 112.787,385.662 115.544,381.854 115.544,376.076 C 115.544,368.992 111.152,364.908 103.469,364.908 L 93.625,364.908 L 93.625,402.736 L 100.239,402.736 L 100.239,387.537 L 101.111,387.537 L 110.335,402.736 L 118.506,402.736 L 107.777,386.799 L 107.777,386.799 z "
   style="fill:#009901;fill-rule:evenodd"
   id="path30" />
			</g>
		</g>
		<g
   id="g32">
			<polygon
   points="138.53,402.737 131.918,402.737 131.918,364.909 138.53,364.909 138.53,402.737 "
   style="fill:#009901;fill-rule:evenodd"
   id="polygon34" />
		</g>
		<g
   id="g36">
			<path
   d="M 179.874,375.057 C 177.116,372.051 174.718,370.803 171.551,370.803 C 165.322,370.803 160.421,376.533 160.421,383.793 C 160.421,391.451 165.169,396.836 171.857,396.836 C 174.87,396.836 177.218,395.647 179.874,392.699 L 179.874,401.359 C 176.861,402.947 174.41,403.568 171.551,403.568 C 161.442,403.568 153.58,394.966 153.58,383.851 C 153.58,372.847 161.645,364.076 171.705,364.076 C 174.563,364.076 176.964,364.75 179.874,366.39 L 179.874,375.057 L 179.874,375.057 z "
   style="fill:#009901;fill-rule:evenodd"
   id="path38" />
		</g>
		<g
   id="g40">
			<path
   d="M 201.584,386.571 C 201.584,390.426 201.788,391.675 202.658,393.321 C 203.78,395.477 206.086,396.837 208.643,396.837 C 211.2,396.837 213.5,395.478 214.628,393.321 C 215.495,391.675 215.7,390.426 215.7,386.571 L 215.7,364.909 L 222.312,364.909 L 222.312,388.048 C 222.312,392.472 221.55,395.589 219.822,398.138 C 217.478,401.536 213.295,403.57 208.642,403.57 C 203.987,403.57 199.805,401.537 197.464,398.138 C 195.734,395.589 194.971,392.472 194.971,388.048 L 194.971,364.909 L 201.583,364.909 L 201.583,386.571 L 201.584,386.571 z "
   style="fill:#009901;fill-rule:evenodd"
   id="path42" />
		</g>
		<g
   id="g44">
			<polygon
   points="245.698,396.309 256.163,396.309 256.163,402.731 239.083,402.731 239.083,364.909 245.698,364.909 245.698,396.309 "
   style="fill:#009901;fill-rule:evenodd"
   id="polygon46" />
		</g>
		<g
   id="g48">
			<polygon
   points="271.875,402.737 271.875,371.336 264.267,371.336 264.267,364.915 286.146,364.915 286.146,371.336 278.487,371.336 278.487,402.737 271.875,402.737 "
   style="fill:#009901;fill-rule:evenodd"
   id="polygon50" />
		</g>
		<g
   id="g52">
			<path
   d="M 305.988,386.571 C 305.988,390.426 306.193,391.675 307.06,393.321 C 308.188,395.477 310.488,396.837 313.045,396.837 C 315.602,396.837 317.905,395.478 319.03,393.321 C 319.9,391.675 320.105,390.426 320.105,386.571 L 320.105,364.909 L 326.717,364.909 L 326.717,388.048 C 326.717,392.472 325.955,395.589 324.224,398.138 C 321.886,401.536 317.7,403.57 313.044,403.57 C 308.392,403.57 304.205,401.537 301.864,398.138 C 300.135,395.589 299.374,392.472 299.374,388.048 L 299.374,364.909 L 305.986,364.909 L 305.986,386.571 L 305.988,386.571 z "
   style="fill:#009901;fill-rule:evenodd"
   id="path54" />
		</g>
		<g
   id="g56">
			<g
   id="g58">
				<path
   d="M 350.101,382.311 L 350.101,370.868 L 352.152,370.868 C 356.306,370.868 358.565,372.79 358.565,376.475 C 358.565,380.266 356.306,382.311 352.049,382.311 L 350.101,382.311 L 350.101,382.311 z M 357.642,386.799 C 362.649,385.662 365.406,381.854 365.406,376.076 C 365.406,368.992 361.014,364.908 353.333,364.908 L 343.489,364.908 L 343.489,402.736 L 350.101,402.736 L 350.101,387.537 L 350.974,387.537 L 360.197,402.736 L 368.368,402.736 L 357.642,386.799 L 357.642,386.799 z "
   style="fill:#009901;fill-rule:evenodd"
   id="path60" />
			</g>
		</g>
		<g
   id="g62">
			<polygon
   points="388.392,371.336 388.392,379.686 400.137,379.686 400.137,386.108 388.392,386.108 388.392,396.309 400.594,396.309 400.594,402.731 381.779,402.731 381.779,364.915 400.594,364.915 400.594,371.336 388.392,371.336 "
   style="fill:#009901;fill-rule:evenodd"
   id="polygon64" />
		</g>
		<g
   id="g66">
			<g
   id="g68">
				<path
   d="M 10.17,439.317 L 10.17,429.485 L 12.175,429.485 C 15.516,429.485 17.264,431.19 17.264,434.372 C 17.264,437.665 15.516,439.317 12.073,439.317 L 10.17,439.317 L 10.17,439.317 z M 3.558,461.354 L 15.054,461.354 C 22.207,461.354 26.549,457.329 26.549,450.637 C 26.549,445.539 24.199,442.258 19.655,441.18 C 22.369,439.428 23.39,437.272 23.39,433.522 C 23.39,430.399 22.217,427.446 20.327,425.799 C 18.591,424.27 15.928,423.531 11.969,423.531 L 3.558,423.531 L 3.558,461.354 L 3.558,461.354 z M 10.17,455.401 L 10.17,444.919 L 12.688,444.919 C 17.664,444.919 19.708,446.501 19.708,450.298 C 19.708,453.702 17.511,455.402 13.069,455.402 L 10.17,455.402 L 10.17,455.401 z "
   style="fill:#009901;fill-rule:evenodd"
   id="path70" />
			</g>
		</g>
		<g
   id="g72">
			<polygon
   points="50.76,461.36 44.149,461.36 44.149,423.532 50.76,423.532 50.76,461.36 "
   style="fill:#009901;fill-rule:evenodd"
   id="polygon74" />
		</g>
		<g
   id="g76">
			<g
   id="g78">
				<path
   d="M 86.581,429.426 C 92.858,429.426 97.91,435.268 97.91,442.416 C 97.91,449.617 92.805,455.459 86.581,455.459 C 80.307,455.459 75.204,449.617 75.204,442.416 C 75.204,435.268 80.307,429.426 86.581,429.426 L 86.581,429.426 z M 86.581,422.7 C 76.377,422.7 68.363,431.413 68.363,442.528 C 68.363,453.643 76.275,462.192 86.581,462.192 C 96.735,462.192 104.749,453.532 104.749,442.417 C 104.75,431.36 96.785,422.7 86.581,422.7 L 86.581,422.7 z "
   style="fill:#009901;fill-rule:evenodd"
   id="path80" />
			</g>
		</g>
		<g
   id="g82">
			<polygon
   points="128.979,454.926 139.446,454.926 139.446,461.348 122.367,461.348 122.367,423.532 128.979,423.532 128.979,454.926 "
   style="fill:#009901;fill-rule:evenodd"
   id="polygon84" />
		</g>
		<g
   id="g86">
			<g
   id="g88">
				<path
   d="M 171.179,429.426 C 177.453,429.426 182.505,435.268 182.505,442.416 C 182.505,449.617 177.401,455.459 171.179,455.459 C 164.901,455.459 159.8,449.617 159.8,442.416 C 159.8,435.268 164.9,429.426 171.179,429.426 L 171.179,429.426 z M 171.179,422.7 C 160.972,422.7 152.958,431.413 152.958,442.528 C 152.958,453.643 160.871,462.192 171.179,462.192 C 181.33,462.192 189.347,453.532 189.347,442.417 C 189.347,431.36 181.381,422.7 171.179,422.7 L 171.179,422.7 z "
   style="fill:#009901;fill-rule:evenodd"
   id="path90" />
			</g>
		</g>
		<g
   id="g92">
			<path
   d="M 239.701,441.11 L 239.701,442.305 C 239.701,454.498 233.27,462.192 223.11,462.192 C 212.795,462.192 205.239,453.989 205.239,442.645 C 205.239,431.073 212.847,422.7 223.312,422.7 C 229.643,422.7 234.7,425.753 237.916,431.583 L 232.095,435.04 C 230.053,431.302 227.091,429.427 223.159,429.427 C 216.828,429.427 212.079,435.099 212.079,442.646 C 212.079,450.023 216.828,455.519 223.209,455.519 C 228.061,455.519 231.638,452.349 232.147,447.533 L 224.128,447.533 L 224.128,441.111 L 239.701,441.111 L 239.701,441.11 z "
   style="fill:#009901;fill-rule:evenodd"
   id="path94" />
		</g>
		<g
   id="g96">
			<polygon
   points="263.968,461.36 257.355,461.36 257.355,423.532 263.968,423.532 263.968,461.36 "
   style="fill:#009901;fill-rule:evenodd"
   id="polygon98" />
		</g>
		<g
   id="g100">
			<g
   id="g102">
				<path
   d="M 304.872,446.161 L 297.993,446.782 L 304.567,453.93 C 303.035,455.061 301.713,455.459 299.674,455.459 C 293.199,455.459 288.409,449.904 288.409,442.357 C 288.409,435.039 293.404,429.425 299.926,429.425 C 306.198,429.425 311.293,435.208 311.293,442.415 C 311.293,445.761 310.528,448.14 308.642,450.413 L 304.872,446.161 L 304.872,446.161 z M 318.85,462.081 L 313.336,456.022 C 316.708,451.715 318.135,447.749 318.135,442.475 C 318.135,431.36 310.122,422.7 299.927,422.7 C 289.582,422.7 281.57,431.302 281.57,442.417 C 281.57,453.591 289.533,462.192 299.828,462.192 C 303.599,462.192 306.352,461.401 309.358,459.362 L 312.162,462.813 L 318.85,462.081 L 318.85,462.081 z "
   style="fill:#009901;fill-rule:evenodd"
   id="path104" />
			</g>
		</g>
		<g
   id="g106">
			<path
   d="M 342.032,445.194 C 342.032,449.049 342.237,450.298 343.107,451.944 C 344.232,454.1 346.535,455.46 349.092,455.46 C 351.647,455.46 353.952,454.101 355.074,451.944 C 355.944,450.298 356.149,449.049 356.149,445.194 L 356.149,423.532 L 362.761,423.532 L 362.761,446.671 C 362.761,451.095 361.996,454.212 360.271,456.761 C 357.93,460.154 353.747,462.193 349.091,462.193 C 344.435,462.193 340.252,460.154 337.911,456.761 C 336.182,454.212 335.418,451.095 335.418,446.671 L 335.418,423.532 L 342.03,423.532 L 342.03,445.194 L 342.032,445.194 z "
   style="fill:#009901;fill-rule:evenodd"
   id="path108" />
		</g>
		<g
   id="g110">
			<polygon
   points="388.699,429.959 388.699,438.309 400.441,438.309 400.441,444.731 388.699,444.731 388.699,454.926 400.901,454.926 400.901,461.348 382.087,461.348 382.087,423.538 400.901,423.538 400.901,429.959 388.699,429.959 "
   style="fill:#009901;fill-rule:evenodd"
   id="polygon112" />
		</g>
		<path
   d="M 240.422,109.043 C 289.984,109.043 318.1,130.487 318.1,166.228 C 318.1,201.971 295.225,212.929 295.225,212.929 C 295.225,212.929 337.641,222.937 337.641,272.976 C 337.641,331.119 270.446,331.751 270.446,331.751 L 212.306,331.751 L 212.306,109.043 L 240.422,109.043 L 240.422,109.043 z M 240.422,135.252 L 240.422,207.69 C 240.422,207.69 253.286,207.69 261.867,206.735 C 270.445,205.78 292.843,201.016 292.365,170.517 C 291.89,140.019 270.92,136.206 255.671,134.776 L 240.422,135.252 L 240.422,135.252 z M 240.422,231.04 L 240.422,306.333 C 240.422,306.333 262.345,306.333 269.016,306.333 C 275.687,306.333 309.999,302.05 310.474,269.167 C 310.952,236.278 273.302,230.085 264.727,230.085 C 256.148,230.084 240.422,231.04 240.422,231.04 L 240.422,231.04 z "
   style="fill:#ffffff;fill-rule:evenodd"
   id="path114" />
		<path
   d="M 190.86,331.75 L 162.744,331.75 L 162.744,278.693 L 66.955,278.693 C 66.955,278.693 59.33,298.709 59.33,330.636 L 32.167,330.636 C 32.167,273.448 63.75,173.102 149.877,114.759 C 182.284,98.079 190.86,121.907 190.86,129.056 C 190.86,136.205 190.86,331.75 190.86,331.75 L 190.86,331.75 z M 162.744,138.111 C 87.447,199.588 77.44,251.055 77.44,251.055 L 162.744,251.055 L 162.744,138.111 L 162.744,138.111 z "
   style="fill:#ffffff;fill-rule:evenodd"
   id="path116" />
		<path
   d="M 251.859,13.491 C 251.859,13.491 302.135,34.936 292.842,96.652 C 292.842,96.652 321.436,58.527 367.66,68.058 C 367.66,68.058 347.31,125.635 286.886,106.658 C 229.222,88.55 243.044,22.786 251.859,13.491 L 251.859,13.491 z "
   style="fill:#ffffff;fill-rule:evenodd"
   id="path118" />
	</g>
</svg>